# xmcd
#
# Track frame offsets: 
#        150
#        655
#        12392
#        27527
#        40860
#        54212
#        70065
#        83537
#        103827
#        126095
#        139480
#        157650
#        170580
#        189987
#
# Disc length: 2850 seconds
#
# Revision: 0
# Processed by: cddbd v1.5.2PL0 Copyright (c) Steve Scherf et al.
# Submitted via: ExactAudioCopy v0.95b4
#
DISCID=ac0b200e
DTITLE=The Pinstripes - Road from Hell
DYEAR=2009
DGENRE=Rock and Roll
TTITLE0=Intro
TTITLE1=El Paso
TTITLE2=Road to Hell
TTITLE3=Addicted to Love
TTITLE4=Hot Rod
TTITLE5=Gretsch
TTITLE6=Only One
TTITLE7=Devil Lou
TTITLE8=No Reason
TTITLE9=Pinstripes Boogie
TTITLE10=Vampir
TTITLE11=Lonesome
TTITLE12=Whole Lotta Rosie
TTITLE13=Lets Go
EXTD=
EXTT0=
EXTT1=
EXTT2=
EXTT3=
EXTT4=
EXTT5=
EXTT6=
EXTT7=
EXTT8=
EXTT9=
EXTT10=
EXTT11=
EXTT12=
EXTT13=
PLAYORDER=
